<svg width="185" height="218" viewBox="0 0 185 218" fill="none" xmlns="http://www.w3.org/2000/svg">
<path d="M187.488 -26.1045H1.97717V236.266H187.488V-26.1045Z" fill="#4FA4C0"/>
<path d="M187.488 -26.1045H1.97717V236.266H187.488V-26.1045Z" fill="url(#paint0_linear)"/>
<path d="M187.488 -26.1045H1.97717V236.266H187.488V-26.1045Z" fill="#4FA4C0"/>
<path d="M187.488 -26.1045H1.97717V236.266H187.488V-26.1045Z" fill="url(#paint1_linear)"/>
<path opacity="0.61" d="M62.4466 29.0718C70.6909 29.0718 77.3741 22.3885 77.3741 14.1443C77.3741 5.90006 70.6909 -0.783203 62.4466 -0.783203C54.2024 -0.783203 47.5192 5.90006 47.5192 14.1443C47.5192 22.3885 54.2024 29.0718 62.4466 29.0718Z" fill="white"/>
<path opacity="0.22" d="M176.233 -18.6918C176.063 -18.6918 175.905 -18.6804 175.746 -18.6804C175.531 -18.6804 175.304 -18.6918 175.088 -18.6918C160.592 -18.6238 148.01 -9.4882 142.74 3.2404C140.79 7.71751 139.691 12.648 139.691 17.8392C139.691 30.2051 145.846 41.1428 155.253 47.7508C148.271 50.1764 143.25 56.7844 143.25 64.5938C143.25 70.091 145.732 74.9988 149.643 78.2745C140.802 78.9772 133.831 86.356 133.831 95.3782C133.831 96.9763 134.069 98.5178 134.477 99.9913C133.117 99.708 131.7 99.5606 130.261 99.5606C119.833 99.5606 111.23 107.257 109.757 117.276C108.159 116.846 106.481 116.596 104.747 116.596C100.009 116.596 95.6793 118.319 92.3356 121.153C87.5525 113.638 79.165 108.628 69.5874 108.628C66.6404 108.628 63.8068 109.116 61.1545 109.988C62.0953 107.2 62.3787 104.128 61.7099 100.887C60.5198 95.1175 56.3261 90.3797 50.8629 88.1808C47.4852 86.8207 44.2549 86.7073 41.2852 87.2854C42.1353 85.4719 42.634 83.4543 42.634 81.3235C42.634 74.1034 37.1822 68.1642 30.1661 67.3821C31.2429 64.5031 31.855 61.3975 31.855 58.1445C31.855 43.9764 20.7019 32.4493 6.7038 31.7692C9.78677 28.5162 11.691 24.1298 11.691 19.3013C11.691 9.27033 3.56416 1.14353 -6.46684 1.14353C-16.4978 1.14353 -24.6246 9.27033 -24.6246 19.3013V236.254H212.776V17.8505C212.764 -2.32482 196.409 -18.6918 176.233 -18.6918Z" fill="url(#paint2_linear)"/>
<path opacity="0.74" d="M214.124 65.478C212.56 51.6613 201.407 40.7689 187.488 39.5901V39.4767C187.295 39.4994 187.103 39.5221 186.899 39.5447C186.264 39.4994 185.629 39.4767 184.983 39.4767C168.786 39.4767 155.65 52.6134 155.65 68.8103C155.65 75.1916 157.69 81.0969 161.158 85.914C161.419 86.4694 161.691 87.0135 161.986 87.5348C152.737 90.6745 146.083 99.402 146.083 109.705C146.083 109.75 146.095 109.796 146.095 109.852C141.765 106.497 136.324 104.491 130.419 104.491C126.497 104.491 122.791 105.375 119.47 106.939C114.437 96.1377 103.5 88.6456 90.8051 88.6456C84.3332 88.6456 78.3259 90.5951 73.3161 93.9275C70.3011 89.3257 65.1099 86.2767 59.1933 86.2767C56.1897 86.2767 53.3674 87.0701 50.9192 88.4529C48.913 79 40.5255 71.9046 30.4718 71.9046C29.0663 71.9046 27.6949 72.052 26.3687 72.3127C26.9581 70.2838 27.2982 68.1529 27.2982 65.9314C27.2982 63.3698 26.8561 60.9102 26.0741 58.6206C23.4331 49.7118 15.2043 43.2171 5.434 43.2171C5.28666 43.2171 5.15064 43.2398 5.00329 43.2398C4.85594 43.2398 4.71994 43.2171 4.57259 43.2171C3.6885 43.2171 2.82708 43.2738 1.96566 43.3758V43.5231C-8.28069 45.178 -16.1128 54.0415 -16.1128 64.7526V236.549H214.305V65.2966L214.124 65.478Z" fill="url(#paint3_linear)"/>
<path d="M154.686 115.089L123.913 129.45L45.2976 94.0068C32.637 88.2942 17.8455 90.1418 6.97578 98.7899L1.97728 102.768L-145.099 236.266H335.494L191.659 118.761C188.905 116.506 185.777 114.772 182.411 113.615C173.32 110.498 163.391 111.031 154.686 115.089Z" fill="#A5C0EA"/>
<path d="M182.399 113.615C173.32 110.498 163.391 111.031 154.686 115.089L123.913 129.45L45.2974 94.0069C39.0181 91.1732 32.2174 90.2098 25.6321 91.0032L50.8739 125.449L42.8151 133.813L111.196 197.626L176.482 154.374L161.033 143.051L185.301 114.613L182.399 113.615Z" fill="#92B3EA"/>
<path d="M154.686 115.089L123.913 129.45L45.2976 94.0068C32.637 88.2942 17.8455 90.1418 6.97578 98.7899L1.97728 102.768L-145.099 236.266H335.494L191.659 118.761C188.905 116.506 185.777 114.772 182.411 113.615C173.32 110.498 163.391 111.031 154.686 115.089Z" fill="url(#paint4_linear)"/>
<path d="M129.83 172.566L63.546 147.778C47.5304 141.782 29.9393 141.476 13.7084 146.893C5.94427 149.489 -1.35513 153.343 -7.87244 158.307L-110.336 236.266H285.112L217.196 196.164C197.689 184.649 175.632 178.143 152.998 177.236C145.086 176.918 137.265 175.343 129.83 172.566Z" fill="white"/>
<path d="M153.009 177.236C145.086 176.919 137.265 175.343 129.83 172.566L63.5459 147.778C57.1419 145.386 50.4886 143.913 43.7786 143.335L36.2638 161.107C33.6909 167.182 34.813 174.187 39.1314 179.163L88.697 236.254H285.123L217.207 196.153C197.7 184.649 175.644 178.143 153.009 177.236Z" fill="#CEE0FF"/>
<path d="M129.83 172.566L63.546 147.778C47.5304 141.782 29.9393 141.476 13.7084 146.893C5.94426 149.489 -1.35513 153.343 -7.87244 158.307L-110.336 236.266H285.112L217.196 196.164C197.689 184.649 175.632 178.143 152.998 177.236C145.086 176.918 137.265 175.343 129.83 172.566Z" fill="url(#paint5_linear)"/>
<path d="M-10.6039 236.537L12.4617 178.607L40.8772 236.537H-10.6039Z" fill="#2F497C"/>
<path d="M23.0027 236.537L47.2358 168.236L74.4951 236.537H23.0027Z" fill="#2F497C"/>
<path d="M30.4266 171.693L17.9134 196.606H24.17L4.49341 236.537H54.1383L40.7183 204.121L49.2192 206.705L30.4266 171.693Z" fill="#627BB3"/>
<path d="M-0.697741 171.693L-13.2223 196.606H-6.95436L-26.631 236.537H23.0026L9.59394 204.121L18.0835 206.705L-0.697741 171.693Z" fill="#496AAA"/>
<path d="M84.356 182.925L73.9964 203.531H79.1762L62.9113 236.537H103.953L92.8569 209.731L99.8842 211.874L84.356 182.925Z" fill="#2F79AA"/>
<path d="M62.3219 182.925L51.9735 203.531H57.142L40.8771 236.537H81.9191L70.8227 209.731L77.8501 211.874L62.3219 182.925Z" fill="#496AAA"/>
<path d="M152.046 236.538L168.651 194.861L189.087 236.538H152.046Z" fill="#2F497C"/>
<path d="M176.233 236.538L193.665 187.403L213.274 236.538H176.233Z" fill="#2F497C"/>
<path d="M181.572 189.885L172.561 207.816H177.072L162.915 236.538H198.63L188.973 213.211L195.082 215.081L181.572 189.885Z" fill="#627BB3"/>
<path d="M159.175 189.885L150.164 207.816H154.675L140.518 236.538H176.233L166.576 213.211L172.697 215.081L159.175 189.885Z" fill="#496AAA"/>
<defs>
<linearGradient id="paint0_linear" x1="95.375" y1="-87.1862" x2="94.7032" y2="114.315" gradientUnits="userSpaceOnUse">
<stop offset="0.4372" stop-color="#9477FF" stop-opacity="0.53"/>
<stop offset="0.9596" stop-color="#9477FF" stop-opacity="0"/>
</linearGradient>
<linearGradient id="paint1_linear" x1="94.7327" y1="-1.38576" x2="94.7327" y2="110.619" gradientUnits="userSpaceOnUse">
<stop stop-color="#7F88ED"/>
<stop offset="0.9596" stop-color="#96B0ED"/>
</linearGradient>
<linearGradient id="paint2_linear" x1="91.3273" y1="-71.5405" x2="94.9619" y2="191.609" gradientUnits="userSpaceOnUse">
<stop stop-color="white"/>
<stop offset="1" stop-color="white" stop-opacity="0"/>
</linearGradient>
<linearGradient id="paint3_linear" x1="97.3099" y1="44.538" x2="100.007" y2="203.68" gradientUnits="userSpaceOnUse">
<stop stop-color="white"/>
<stop offset="1" stop-color="white" stop-opacity="0"/>
</linearGradient>
<linearGradient id="paint4_linear" x1="95.1975" y1="65.2121" x2="96.1841" y2="164.083" gradientUnits="userSpaceOnUse">
<stop stop-color="#5B5FB3" stop-opacity="0.53"/>
<stop offset="0.9596" stop-color="#7E5AFF" stop-opacity="0"/>
</linearGradient>
<linearGradient id="paint5_linear" x1="82.4412" y1="236.266" x2="87.388" y2="137.864" gradientUnits="userSpaceOnUse">
<stop offset="0.4372" stop-color="#4198F4" stop-opacity="0.53"/>
<stop offset="0.9596" stop-color="#4AA2FF" stop-opacity="0"/>
</linearGradient>
</defs>
</svg>
