<svg width="65" height="65" viewBox="0 0 65 65" fill="none" xmlns="http://www.w3.org/2000/svg">
<rect width="65" height="65" rx="25" fill="#8C8C8E" fill-opacity="0.51"/>
<g clip-path="url(#clip0)">
<path d="M42.2879 35.1198C42.5337 35.1198 42.7444 35.3214 42.7444 35.5823V37.6459C42.7444 37.895 42.5454 38.1084 42.2879 38.1084H35.558C35.3122 38.1084 35.1016 37.9068 35.1016 37.6459V35.5823C35.1016 35.3333 35.3005 35.1198 35.558 35.1198H42.2879ZM42.2879 33.3409H35.558C34.3408 33.3409 33.3459 34.3489 33.3459 35.5823V37.6459C33.3459 38.8793 34.3408 39.8874 35.558 39.8874H42.2879C43.5051 39.8874 44.5 38.8793 44.5 37.6459V35.5823C44.5 34.3489 43.5051 33.3409 42.2879 33.3409Z" fill="white"/>
<path d="M36.3188 22.7977C36.5646 22.7977 36.7752 22.9993 36.7752 23.2603V30.0795C36.7752 30.3286 36.5763 30.542 36.3188 30.542H34.2823C34.0365 30.542 33.8258 30.3404 33.8258 30.0795V23.2603C33.8258 23.0112 34.0248 22.7977 34.2823 22.7977H36.3188ZM36.3188 21.0188H34.2823C33.065 21.0188 32.0702 22.0269 32.0702 23.2603V30.0795C32.0702 31.3129 33.065 32.321 34.2823 32.321H36.3188C37.536 32.321 38.5309 31.3129 38.5309 30.0795V23.2603C38.5309 22.0269 37.5477 21.0188 36.3188 21.0188Z" fill="white"/>
<path d="M30.0453 36.4956C30.2911 36.4956 30.5018 36.6972 30.5018 36.9581V43.7773C30.5018 44.0264 30.3028 44.2399 30.0453 44.2399H28.0088C27.763 44.2399 27.5524 44.0382 27.5524 43.7773V36.9581C27.5524 36.709 27.7513 36.4956 28.0088 36.4956H30.0453ZM30.0453 34.7166H28.0088C26.7916 34.7166 25.7968 35.7247 25.7968 36.9581V43.7773C25.7968 45.0107 26.7916 46.0188 28.0088 46.0188H30.0453C31.2626 46.0188 32.2574 45.0107 32.2574 43.7773V36.9581C32.2574 35.7247 31.2626 34.7166 30.0453 34.7166Z" fill="white"/>
<path d="M28.4419 29.0359C28.6877 29.0359 28.8984 29.2375 28.8984 29.4984V31.5738C28.8984 31.8229 28.6994 32.0364 28.4419 32.0364H21.7121C21.4546 32.0364 21.2556 31.8229 21.2556 31.5738V29.4984C21.2556 29.2494 21.4546 29.0359 21.7121 29.0359H28.4419ZM28.4419 27.257H21.7121C20.4949 27.257 19.5 28.265 19.5 29.4984V31.5738C19.5 32.8072 20.4949 33.8153 21.7121 33.8153H28.4419C29.6592 33.8153 30.654 32.8072 30.654 31.5738V29.4984C30.654 28.265 29.6592 27.257 28.4419 27.257Z" fill="white"/>
</g>
<defs>
<clipPath id="clip0">
<rect width="25" height="25" fill="white" transform="translate(19.5 21.0188)"/>
</clipPath>
</defs>
</svg>
