<svg width="40" height="54" viewBox="0 0 40 54" fill="none" xmlns="http://www.w3.org/2000/svg">
<path d="M1.58776 52V42.004H4.05176L6.80976 49.83H6.83776L9.52576 42.004H11.9618V52H10.2958V44.286H10.2678L7.49576 52H6.05376L3.28176 44.286H3.25376V52H1.58776ZM20.1892 44.762V52H18.6212V50.992H18.5932C18.3972 51.3467 18.1032 51.636 17.7112 51.86C17.3285 52.084 16.9365 52.196 16.5352 52.196C14.7338 52.196 13.8332 51.2487 13.8332 49.354V44.762H15.4292V49.2C15.4292 50.3573 15.8912 50.936 16.8152 50.936C18.0005 50.936 18.5932 50.278 18.5932 48.962V44.762H20.1892ZM21.4802 49.676H23.0762C23.1509 50.516 23.6969 50.936 24.7142 50.936C25.8156 50.936 26.3522 50.6187 26.3242 49.984C26.3056 49.536 25.8856 49.214 25.0642 49.018C23.6922 48.682 22.9502 48.486 22.8382 48.43C22.0356 48.0753 21.6342 47.478 21.6342 46.638C21.6342 45.9193 21.9749 45.378 22.6562 45.014C23.1976 44.7153 23.8649 44.566 24.6582 44.566C25.4702 44.566 26.1376 44.734 26.6602 45.07C27.2482 45.462 27.5889 46.036 27.6822 46.792H26.0162C25.8949 46.148 25.4049 45.826 24.5462 45.826C23.6689 45.826 23.2302 46.0733 23.2302 46.568C23.2302 46.904 23.4776 47.1607 23.9722 47.338C24.0656 47.3753 24.6022 47.506 25.5822 47.73C26.3102 47.898 26.8469 48.1033 27.1922 48.346C27.6776 48.7007 27.9202 49.2 27.9202 49.844C27.9202 50.6373 27.5702 51.244 26.8702 51.664C26.2822 52.0187 25.5542 52.196 24.6862 52.196C23.7342 52.196 22.9782 51.9907 22.4182 51.58C21.8022 51.132 21.4896 50.4973 21.4802 49.676ZM29.174 52V44.762H30.77V52H29.174ZM29.174 43.516V42.004H30.77V43.516H29.174ZM38.9909 47.184H37.3949C37.2643 46.2787 36.7136 45.826 35.7429 45.826C35.2109 45.826 34.7769 45.9893 34.4409 46.316C33.9836 46.764 33.7549 47.478 33.7549 48.458C33.7549 49.1393 33.8996 49.704 34.1889 50.152C34.5343 50.6747 35.0289 50.936 35.6729 50.936C36.1396 50.936 36.5223 50.7913 36.8209 50.502C37.1289 50.2033 37.3203 49.7973 37.3949 49.284H38.9909C38.6829 51.2253 37.5769 52.196 35.6729 52.196C34.5716 52.196 33.7036 51.8367 33.0689 51.118C32.4623 50.446 32.1589 49.5593 32.1589 48.458C32.1589 47.31 32.4576 46.386 33.0549 45.686C33.6896 44.9393 34.5809 44.566 35.7289 44.566C36.6156 44.566 37.3483 44.7807 37.9269 45.21C38.5616 45.6767 38.9163 46.3347 38.9909 47.184Z" fill="#A0A3B1"/>
<path d="M17.4638 10.4887C17.3643 10.4706 17.2647 10.4616 17.1652 10.4616H13.0204C9.97964 10.4616 7.5 12.9322 7.5 15.9819V16.4797C7.5 19.5204 9.97964 22 13.0204 22H13.7534C15.7986 22 17.5996 20.8779 18.5407 19.2037C19.0113 18.3982 19.2738 17.4752 19.2738 16.4797V12.5611C19.2738 11.5023 18.4774 10.6245 17.4638 10.4887ZM17.4638 16.4797C17.4638 18.5249 15.7986 20.1901 13.7534 20.1901H13.0204C10.9751 20.1901 9.30995 18.5249 9.30995 16.4797V15.9819C9.30995 13.9367 10.9751 12.2715 13.0204 12.2715H17.1652C17.3281 12.2715 17.4638 12.3982 17.4638 12.5611V16.4797Z" fill="#A0A3B1"/>
<path d="M28.4052 0.0361991H27.8079V0H23.093C19.9889 0 17.4641 2.52489 17.4641 5.62896V15.9004C17.4641 17.1403 17.8622 18.2805 18.541 19.2036C19.0116 18.3982 19.274 17.4751 19.274 16.4796V5.62896C19.274 3.52036 20.9844 1.80995 23.093 1.80995H27.3554V1.819H28.4052C30.1518 1.819 31.5726 3.23982 31.5726 4.98642V9.14027C31.5274 9.13122 31.4731 9.13122 31.4278 9.13122H27.8713C25.265 9.13122 23.1292 11.2489 23.1292 13.8643V14.2896C23.1292 16.8959 25.265 19.0317 27.8713 19.0317H28.4957C30.2514 19.0317 31.7989 18.0633 32.6043 16.6244C32.8758 16.1629 33.0749 15.6561 33.1654 15.1041C33.2831 14.6787 33.3464 14.2443 33.3464 13.7919V4.98642C33.3464 2.25339 31.1292 0.0361991 28.4052 0.0361991ZM31.6812 14.2896C31.6812 14.5158 31.6541 14.733 31.6179 14.9502C31.3102 16.3891 30.0251 17.4751 28.4957 17.4751H27.8713C26.1156 17.4751 24.6858 16.0452 24.6858 14.2896V13.8643C24.6858 12.1086 26.1156 10.6787 27.8713 10.6787H31.4278C31.4821 10.6787 31.5274 10.6968 31.5726 10.724C31.636 10.7692 31.6812 10.8416 31.6812 10.9321V14.2896Z" fill="#A0A3B1"/>
</svg>
