<svg width="35" height="55" viewBox="0 0 35 55" fill="none" xmlns="http://www.w3.org/2000/svg">
<path d="M5.27658 44.726L3.76458 49.024H6.81658L5.31858 44.726H5.27658ZM0.544578 53L4.38058 43.004H6.24258L10.0926 53H8.21658L7.27858 50.354H3.28858L2.35058 53H0.544578ZM10.1065 46.952V45.762H11.2965V45.16C11.2965 44.32 11.5018 43.7273 11.9125 43.382C12.2205 43.13 12.6825 43.004 13.2985 43.004C13.8118 43.004 14.1851 43.0367 14.4185 43.102V44.348C14.2131 44.292 13.9658 44.264 13.6765 44.264C13.1538 44.264 12.8925 44.516 12.8925 45.02V45.762H14.2505V46.952H12.8925V53H11.2965V46.952H10.1065ZM14.8445 50.676H16.4405C16.5152 51.516 17.0612 51.936 18.0785 51.936C19.1798 51.936 19.7165 51.6187 19.6885 50.984C19.6698 50.536 19.2498 50.214 18.4285 50.018C17.0565 49.682 16.3145 49.486 16.2025 49.43C15.3998 49.0753 14.9985 48.478 14.9985 47.638C14.9985 46.9193 15.3392 46.378 16.0205 46.014C16.5618 45.7153 17.2292 45.566 18.0225 45.566C18.8345 45.566 19.5018 45.734 20.0245 46.07C20.6125 46.462 20.9532 47.036 21.0465 47.792H19.3805C19.2592 47.148 18.7692 46.826 17.9105 46.826C17.0332 46.826 16.5945 47.0733 16.5945 47.568C16.5945 47.904 16.8418 48.1607 17.3365 48.338C17.4298 48.3753 17.9665 48.506 18.9465 48.73C19.6745 48.898 20.2112 49.1033 20.5565 49.346C21.0418 49.7007 21.2845 50.2 21.2845 50.844C21.2845 51.6373 20.9345 52.244 20.2345 52.664C19.6465 53.0187 18.9185 53.196 18.0505 53.196C17.0985 53.196 16.3425 52.9907 15.7825 52.58C15.1665 52.132 14.8538 51.4973 14.8445 50.676ZM26.9623 50.564V49.374C26.7569 49.5047 26.4583 49.6027 26.0663 49.668C25.7116 49.7147 25.3569 49.7613 25.0023 49.808C24.1343 49.9573 23.7003 50.3587 23.7003 51.012C23.7003 51.3293 23.8776 51.572 24.2323 51.74C24.5029 51.8707 24.8156 51.936 25.1703 51.936C25.5996 51.936 25.9869 51.8333 26.3323 51.628C26.7523 51.376 26.9623 51.0213 26.9623 50.564ZM28.5583 47.666V51.39C28.5583 51.754 28.6843 51.936 28.9363 51.936C29.0856 51.936 29.2163 51.9267 29.3283 51.908V53.014C28.9829 53.1353 28.6469 53.196 28.3203 53.196C27.6109 53.196 27.2003 52.902 27.0883 52.314C26.4909 52.902 25.6556 53.196 24.5823 53.196C23.8823 53.196 23.3083 53.0187 22.8603 52.664C22.3563 52.2813 22.1043 51.754 22.1043 51.082C22.1043 50.2793 22.4029 49.7007 23.0003 49.346C23.3643 49.1313 23.9943 48.9587 24.8903 48.828C25.8983 48.6787 26.4023 48.604 26.4023 48.604C26.8409 48.4733 27.0603 48.2073 27.0603 47.806C27.0603 47.1527 26.5609 46.826 25.5623 46.826C24.5636 46.826 24.0316 47.2087 23.9663 47.974H22.3703C22.4636 46.3687 23.5603 45.566 25.6603 45.566C26.4536 45.566 27.1116 45.7247 27.6343 46.042C28.2503 46.4153 28.5583 46.9567 28.5583 47.666ZM30.2755 53V45.762H31.7735V47.162H31.8015C31.8949 46.7607 32.1515 46.3967 32.5715 46.07C32.9915 45.734 33.4395 45.566 33.9155 45.566C34.0369 45.566 34.2375 45.58 34.5175 45.608V47.148C34.1442 47.1013 33.9155 47.078 33.8315 47.078C33.2622 47.078 32.8002 47.2927 32.4455 47.722C32.0629 48.17 31.8715 48.7813 31.8715 49.556V53H30.2755Z" fill="#A0A3B1"/>
<path d="M12.8233 6.31132C12.8233 9.29253 15.2479 11.7154 18.231 11.7154C21.2142 11.7154 23.6387 9.28514 23.6387 6.30412C23.6387 3.32291 21.2141 0.9 18.231 0.9C15.2478 0.9 12.8233 3.323 12.8233 6.31132ZM14.4656 6.30412C14.4656 4.23332 16.1517 2.54134 18.231 2.54134C20.3103 2.54134 21.9964 4.23332 21.9964 6.30412C21.9964 8.37479 20.3032 10.0669 18.231 10.0669C16.1587 10.0669 14.4656 8.37479 14.4656 6.30412Z" fill="#A0A3B1" stroke="#A0A3B1" stroke-width="0.2"/>
<path d="M23.2543 24.0001H13.2073C10.6078 24.0001 8.5 21.6235 8.5 18.6924C8.5 15.7612 10.6165 13.3846 13.2073 13.3846H23.2543C25.8539 13.3846 27.9616 15.7711 27.9616 18.6924C27.9616 21.6136 25.8539 24.0001 23.2543 24.0001ZM13.2073 15.3651C11.5826 15.3651 10.2565 16.8604 10.2565 18.6924C10.2565 20.5243 11.5826 22.0196 13.2073 22.0196H23.2543C24.879 22.0196 26.2052 20.5243 26.2052 18.6924C26.2052 16.8604 24.879 15.3651 23.2543 15.3651H13.2073Z" fill="#A0A3B1"/>
</svg>
