<svg width="40" height="54" viewBox="0 0 40 54" fill="none" xmlns="http://www.w3.org/2000/svg">
<path d="M29.8204 7.50594L22.2282 0.819133C21.1436 -0.265457 19.3778 -0.265456 18.3381 0.774315L10.6563 7.55076C9.91232 8.29473 9.5 9.28969 9.5 10.3474V19.302C9.5 20.7899 10.7101 22 12.198 22H28.3324C29.8114 22 31.0215 20.7899 31.0215 19.302V10.3474C31.0215 9.28969 30.6092 8.29473 29.8204 7.50594ZM29.2288 19.302C29.2288 19.8039 28.8254 20.2073 28.3324 20.2073H22.6495V14.4348C22.6495 13.9149 22.2372 13.5026 21.7173 13.5026H18.8042C18.2932 13.5026 17.872 13.9149 17.872 14.4348V20.2073H12.198C11.6961 20.2073 11.2927 19.8039 11.2927 19.302V10.3474C11.2927 9.78268 11.5258 9.21798 11.8843 8.85047L19.5661 2.08299C19.7543 1.89476 19.9963 1.79616 20.2473 1.79616C20.5162 1.79616 20.7851 1.90372 21.0002 2.11885L28.5924 8.81462C29.0047 9.22694 29.2288 9.77372 29.2288 10.3474V19.302Z" fill="#A0A3B1"/>
<path d="M1.522 52V42.004H3.272V45.98H7.822V42.004H9.572V52H7.822V47.492H3.272V52H1.522ZM14.7615 50.936C15.4335 50.936 15.9562 50.6653 16.3295 50.124C16.6562 49.6573 16.8195 49.074 16.8195 48.374C16.8195 47.6833 16.6562 47.1047 16.3295 46.638C15.9562 46.0967 15.4335 45.826 14.7615 45.826C14.0895 45.826 13.5668 46.0967 13.1935 46.638C12.8668 47.1047 12.7035 47.6833 12.7035 48.374C12.7035 49.074 12.8668 49.6573 13.1935 50.124C13.5668 50.6653 14.0895 50.936 14.7615 50.936ZM14.7615 52.196C13.6228 52.196 12.7222 51.8367 12.0595 51.118C11.4248 50.4273 11.1075 49.5127 11.1075 48.374C11.1075 47.2447 11.4295 46.33 12.0735 45.63C12.7268 44.9207 13.6228 44.566 14.7615 44.566C15.9002 44.566 16.8008 44.9253 17.4635 45.644C18.0982 46.3347 18.4155 47.2447 18.4155 48.374C18.4155 49.5127 18.0982 50.4273 17.4635 51.118C16.8008 51.8367 15.9002 52.196 14.7615 52.196ZM19.7423 52V44.762H21.2543V45.77H21.2963C21.8283 44.9673 22.5703 44.566 23.5223 44.566C24.5583 44.566 25.235 44.9673 25.5523 45.77C26.131 44.9673 26.887 44.566 27.8203 44.566C29.435 44.566 30.2423 45.378 30.2423 47.002V52H28.6463V47.772C28.6463 47.0907 28.581 46.624 28.4503 46.372C28.273 46.008 27.8997 45.826 27.3303 45.826C26.3037 45.826 25.7903 46.47 25.7903 47.758V52H24.1943V47.352C24.1943 46.8293 24.0963 46.4467 23.9003 46.204C23.7137 45.952 23.387 45.826 22.9203 45.826C22.4817 45.826 22.1083 45.994 21.8003 46.33C21.4923 46.666 21.3383 47.1233 21.3383 47.702V52H19.7423ZM38.49 48.794H33.17C33.17 49.4007 33.3287 49.9 33.646 50.292C33.9913 50.7213 34.4813 50.936 35.116 50.936C36.012 50.936 36.6 50.5347 36.88 49.732H38.392C38.224 50.5067 37.8367 51.1133 37.23 51.552C36.6327 51.9813 35.928 52.196 35.116 52.196C34.0053 52.196 33.1373 51.846 32.512 51.146C31.8867 50.446 31.574 49.5267 31.574 48.388C31.574 47.324 31.8867 46.428 32.512 45.7C33.1747 44.944 34.0287 44.566 35.074 44.566C36.0913 44.566 36.9267 44.9393 37.58 45.686C38.2053 46.386 38.518 47.2447 38.518 48.262C38.518 48.4393 38.5087 48.6167 38.49 48.794ZM33.17 47.744H36.894C36.866 47.212 36.684 46.7593 36.348 46.386C36.0213 46.0127 35.5967 45.826 35.074 45.826C34.5327 45.826 34.0847 46.008 33.73 46.372C33.3753 46.736 33.1887 47.1933 33.17 47.744Z" fill="#A0A3B1"/>
</svg>
