<svg width="38" height="55" viewBox="0 0 38 55" fill="none" xmlns="http://www.w3.org/2000/svg">
<path d="M0.962 48.668H2.712C2.712 49.396 2.95933 49.9467 3.454 50.32C3.89267 50.6467 4.49 50.81 5.246 50.81C5.96467 50.81 6.51067 50.6513 6.884 50.334C7.20133 50.0633 7.36 49.718 7.36 49.298C7.36 48.682 7.08467 48.2713 6.534 48.066C6.45933 48.038 5.46533 47.7627 3.552 47.24C2.07733 46.8387 1.34 45.994 1.34 44.706C1.34 43.7633 1.72267 43.0213 2.488 42.48C3.16933 42.004 4.00467 41.766 4.994 41.766C6.086 41.766 6.98667 42.0367 7.696 42.578C8.452 43.166 8.83 43.9593 8.83 44.958H7.08C7.00533 43.782 6.28667 43.194 4.924 43.194C4.43867 43.194 4.03267 43.2827 3.706 43.46C3.29533 43.6933 3.09 44.0387 3.09 44.496C3.09 45.14 3.48667 45.5693 4.28 45.784C5.07333 45.9893 6.03467 46.246 7.164 46.554C7.78933 46.7407 8.27933 47.086 8.634 47.59C8.95133 48.0473 9.11 48.5513 9.11 49.102C9.11 50.1473 8.69467 50.95 7.864 51.51C7.14533 51.9953 6.23533 52.238 5.134 52.238C3.92067 52.238 2.94533 51.9533 2.208 51.384C1.396 50.7587 0.980667 49.8533 0.962 48.668ZM10.4601 52V42.004H12.0561V52H10.4601ZM20.3611 48.794H15.0411C15.0411 49.4007 15.1997 49.9 15.5171 50.292C15.8624 50.7213 16.3524 50.936 16.9871 50.936C17.8831 50.936 18.4711 50.5347 18.7511 49.732H20.2631C20.0951 50.5067 19.7077 51.1133 19.1011 51.552C18.5037 51.9813 17.7991 52.196 16.9871 52.196C15.8764 52.196 15.0084 51.846 14.3831 51.146C13.7577 50.446 13.4451 49.5267 13.4451 48.388C13.4451 47.324 13.7577 46.428 14.3831 45.7C15.0457 44.944 15.8997 44.566 16.9451 44.566C17.9624 44.566 18.7977 44.9393 19.4511 45.686C20.0764 46.386 20.3891 47.2447 20.3891 48.262C20.3891 48.4393 20.3797 48.6167 20.3611 48.794ZM15.0411 47.744H18.7651C18.7371 47.212 18.5551 46.7593 18.2191 46.386C17.8924 46.0127 17.4677 45.826 16.9451 45.826C16.4037 45.826 15.9557 46.008 15.6011 46.372C15.2464 46.736 15.0597 47.1933 15.0411 47.744ZM28.1404 48.794H22.8204C22.8204 49.4007 22.979 49.9 23.2964 50.292C23.6417 50.7213 24.1317 50.936 24.7664 50.936C25.6624 50.936 26.2504 50.5347 26.5304 49.732H28.0424C27.8744 50.5067 27.487 51.1133 26.8804 51.552C26.283 51.9813 25.5784 52.196 24.7664 52.196C23.6557 52.196 22.7877 51.846 22.1624 51.146C21.537 50.446 21.2244 49.5267 21.2244 48.388C21.2244 47.324 21.537 46.428 22.1624 45.7C22.825 44.944 23.679 44.566 24.7244 44.566C25.7417 44.566 26.577 44.9393 27.2304 45.686C27.8557 46.386 28.1684 47.2447 28.1684 48.262C28.1684 48.4393 28.159 48.6167 28.1404 48.794ZM22.8204 47.744H26.5444C26.5164 47.212 26.3344 46.7593 25.9984 46.386C25.6717 46.0127 25.247 45.826 24.7244 45.826C24.183 45.826 23.735 46.008 23.3804 46.372C23.0257 46.736 22.839 47.1933 22.8204 47.744ZM34.9677 48.388C34.9677 47.688 34.7997 47.0953 34.4637 46.61C34.0903 46.0873 33.591 45.826 32.9657 45.826C32.3123 45.826 31.8083 46.0547 31.4537 46.512C31.1083 46.9693 30.9357 47.5947 30.9357 48.388C30.9357 49.1347 31.1177 49.746 31.4817 50.222C31.8457 50.698 32.3403 50.936 32.9657 50.936C33.6377 50.936 34.1557 50.67 34.5197 50.138C34.8183 49.6807 34.9677 49.0973 34.9677 48.388ZM29.3957 54.674V44.762H30.9077V45.742H30.9357C31.365 44.958 32.1117 44.566 33.1757 44.566C34.2677 44.566 35.117 44.944 35.7237 45.7C36.2837 46.3907 36.5637 47.296 36.5637 48.416C36.5637 49.4707 36.3117 50.3433 35.8077 51.034C35.2383 51.8087 34.4497 52.196 33.4417 52.196C32.303 52.196 31.4957 51.818 31.0197 51.062H30.9917V54.674H29.3957Z" fill="#A0A3B1"/>
<path d="M19.9761 22C13.6466 22 8.5 16.8534 8.5 10.5327C8.5 6.03056 11.1483 1.92565 15.2532 0.071818C15.5004 -0.042943 15.7829 -0.0164596 16.0124 0.124785C16.242 0.266029 16.3832 0.513207 16.3832 0.786867C16.5156 6.90451 21.6092 11.8922 27.7357 11.8922C28.6008 11.8922 29.466 11.7951 30.3134 11.5921C30.5694 11.5303 30.8519 11.6009 31.0461 11.7863C31.2403 11.9717 31.3286 12.2365 31.2845 12.5013C30.3311 18.0098 25.5817 22 19.9761 22ZM14.8737 2.07572C11.9428 3.8501 10.0978 7.05458 10.0978 10.5327C10.0978 15.9706 14.5294 20.4022 19.9761 20.4022C24.3988 20.4022 28.2124 17.5067 29.4395 13.3753C28.8745 13.4547 28.3007 13.49 27.7357 13.49C21.1679 13.49 15.6417 8.47585 14.8737 2.07572Z" fill="#A0A3B1"/>
</svg>
