<svg width="59" height="54" viewBox="0 0 59 54" fill="none" xmlns="http://www.w3.org/2000/svg">
<path d="M30.7173 22.0002C30.1635 22.0002 25.333 21.9366 23.3536 19.6031C22.6454 18.7678 22.373 17.7236 22.5546 16.5886L22.5728 16.4887C22.5909 16.407 22.6 16.3344 22.6182 16.2618L22.9541 14.9361C23.2447 13.9283 23.5443 13.0748 23.8803 12.2757C24.2525 11.4041 24.7338 10.5688 25.3966 9.6517C26.2501 8.46225 27.2761 7.11845 28.6562 6.29219C29.1193 6.0198 29.8457 5.70201 30.6992 5.75649C31.5617 5.70201 32.279 6.01072 32.7421 6.29219C34.0677 7.08213 35.0938 8.37145 36.0108 9.6517C36.6646 10.5688 37.1458 11.4041 37.5271 12.2757C37.9448 13.2382 38.2989 14.3005 38.6076 15.5081L38.7983 16.2618C39.0798 17.4784 38.8618 18.5952 38.1445 19.4941C36.2287 21.9366 31.2803 22.0002 30.7173 22.0002ZM24.6157 15.7714L24.3615 16.8156C24.2525 17.5057 24.3706 18.0051 24.7428 18.4318C25.9686 19.8755 29.4734 20.1933 30.7173 20.1933H30.7264C31.9976 20.1933 35.5659 19.8664 36.7463 18.3773C37.1185 17.9143 37.2093 17.3695 37.0459 16.6794L36.8734 15.9712C36.5828 14.8544 36.256 13.8829 35.8837 13.0021C35.5568 12.2485 35.1392 11.5221 34.558 10.7049C33.8135 9.66078 32.9328 8.49857 31.8432 7.85391C31.48 7.64507 31.1168 7.5452 30.799 7.57244L30.7173 7.58152L30.6265 7.57244C30.3178 7.5452 29.9455 7.64507 29.6005 7.85391C28.52 8.49857 27.6302 9.66078 26.8857 10.7049C26.3046 11.5221 25.8869 12.2485 25.56 13.0021C25.2513 13.7194 24.9789 14.5003 24.7247 15.3901L24.6157 15.7714Z" fill="#A0A3B1"/>
<path d="M37.0096 6.98233C35.0847 6.98233 33.5229 5.42061 33.5229 3.4957C33.5229 1.5708 35.0847 0 37.0096 0C38.9345 0 40.4962 1.56172 40.4962 3.48662C40.4962 5.41153 38.9345 6.98233 37.0096 6.98233ZM37.0096 1.81595C36.0834 1.81595 35.3389 2.56957 35.3389 3.48662C35.3389 4.40368 36.0925 5.1573 37.0096 5.1573C37.9266 5.1573 38.6802 4.40368 38.6802 3.48662C38.6802 2.56957 37.9266 1.81595 37.0096 1.81595Z" fill="#A0A3B1"/>
<path d="M2.01647 52V42.004H4.48047L7.23847 49.83H7.26647L9.95447 42.004H12.3905V52H10.7245V44.286H10.6965L7.92447 52H6.48247L3.71047 44.286H3.68247V52H2.01647ZM20.8279 48.794H15.5079C15.5079 49.4007 15.6665 49.9 15.9839 50.292C16.3292 50.7213 16.8192 50.936 17.4539 50.936C18.3499 50.936 18.9379 50.5347 19.2179 49.732H20.7299C20.5619 50.5067 20.1745 51.1133 19.5679 51.552C18.9705 51.9813 18.2659 52.196 17.4539 52.196C16.3432 52.196 15.4752 51.846 14.8499 51.146C14.2245 50.446 13.9119 49.5267 13.9119 48.388C13.9119 47.324 14.2245 46.428 14.8499 45.7C15.5125 44.944 16.3665 44.566 17.4119 44.566C18.4292 44.566 19.2645 44.9393 19.9179 45.686C20.5432 46.386 20.8559 47.2447 20.8559 48.262C20.8559 48.4393 20.8465 48.6167 20.8279 48.794ZM15.5079 47.744H19.2319C19.2039 47.212 19.0219 46.7593 18.6859 46.386C18.3592 46.0127 17.9345 45.826 17.4119 45.826C16.8705 45.826 16.4225 46.008 16.0679 46.372C15.7132 46.736 15.5265 47.1933 15.5079 47.744ZM23.2872 48.458C23.2872 49.1393 23.4458 49.7087 23.7632 50.166C24.1272 50.6793 24.6358 50.936 25.2892 50.936C25.9518 50.936 26.4698 50.6653 26.8432 50.124C27.1605 49.6573 27.3192 49.074 27.3192 48.374C27.3192 47.5807 27.1372 46.96 26.7732 46.512C26.4185 46.0547 25.9332 45.826 25.3172 45.826C24.6265 45.826 24.0992 46.1013 23.7352 46.652C23.4365 47.1187 23.2872 47.7207 23.2872 48.458ZM28.8592 42.004V52H27.3472V51.02H27.3192C26.9178 51.804 26.1712 52.196 25.0792 52.196C23.9778 52.196 23.1285 51.8227 22.5312 51.076C21.9712 50.3853 21.6912 49.4707 21.6912 48.332C21.6912 47.1 22.0178 46.1433 22.6712 45.462C23.2405 44.8647 23.9592 44.566 24.8272 44.566C25.9658 44.566 26.7685 44.944 27.2352 45.7H27.2632V42.004H28.8592ZM30.6418 52V44.762H32.2378V52H30.6418ZM30.6418 43.516V42.004H32.2378V43.516H30.6418ZM33.2487 45.952V44.762H34.4527V42.592H36.0487V44.762H37.4907V45.952H36.0487V49.816C36.0487 50.1893 36.0861 50.4367 36.1607 50.558C36.2634 50.726 36.4827 50.81 36.8187 50.81C37.1174 50.81 37.3414 50.7913 37.4907 50.754V51.986C36.7907 52.042 36.4454 52.07 36.4547 52.07C35.6707 52.07 35.1294 51.9113 34.8307 51.594C34.5787 51.3327 34.4527 50.8753 34.4527 50.222V45.952H33.2487ZM43.1048 49.564V48.374C42.8995 48.5047 42.6008 48.6027 42.2088 48.668C41.8542 48.7147 41.4995 48.7613 41.1448 48.808C40.2768 48.9573 39.8428 49.3587 39.8428 50.012C39.8428 50.3293 40.0202 50.572 40.3748 50.74C40.6455 50.8707 40.9582 50.936 41.3128 50.936C41.7422 50.936 42.1295 50.8333 42.4748 50.628C42.8948 50.376 43.1048 50.0213 43.1048 49.564ZM44.7008 46.666V50.39C44.7008 50.754 44.8268 50.936 45.0788 50.936C45.2282 50.936 45.3588 50.9267 45.4708 50.908V52.014C45.1255 52.1353 44.7895 52.196 44.4628 52.196C43.7535 52.196 43.3428 51.902 43.2308 51.314C42.6335 51.902 41.7982 52.196 40.7248 52.196C40.0248 52.196 39.4508 52.0187 39.0028 51.664C38.4988 51.2813 38.2468 50.754 38.2468 50.082C38.2468 49.2793 38.5455 48.7007 39.1428 48.346C39.5068 48.1313 40.1368 47.9587 41.0328 47.828C42.0408 47.6787 42.5448 47.604 42.5448 47.604C42.9835 47.4733 43.2028 47.2073 43.2028 46.806C43.2028 46.1527 42.7035 45.826 41.7048 45.826C40.7062 45.826 40.1742 46.2087 40.1088 46.974H38.5128C38.6062 45.3687 39.7028 44.566 41.8028 44.566C42.5962 44.566 43.2542 44.7247 43.7768 45.042C44.3928 45.4153 44.7008 45.9567 44.7008 46.666ZM45.6901 45.952V44.762H46.8941V42.592H48.4901V44.762H49.9321V45.952H48.4901V49.816C48.4901 50.1893 48.5275 50.4367 48.6021 50.558C48.7048 50.726 48.9241 50.81 49.2601 50.81C49.5588 50.81 49.7828 50.7913 49.9321 50.754V51.986C49.2321 52.042 48.8868 52.07 48.8961 52.07C48.1121 52.07 47.5708 51.9113 47.2721 51.594C47.0201 51.3327 46.8941 50.8753 46.8941 50.222V45.952H45.6901ZM57.6462 48.794H52.3262C52.3262 49.4007 52.4849 49.9 52.8022 50.292C53.1476 50.7213 53.6376 50.936 54.2722 50.936C55.1682 50.936 55.7562 50.5347 56.0362 49.732H57.5482C57.3802 50.5067 56.9929 51.1133 56.3862 51.552C55.7889 51.9813 55.0842 52.196 54.2722 52.196C53.1616 52.196 52.2936 51.846 51.6682 51.146C51.0429 50.446 50.7302 49.5267 50.7302 48.388C50.7302 47.324 51.0429 46.428 51.6682 45.7C52.3309 44.944 53.1849 44.566 54.2302 44.566C55.2476 44.566 56.0829 44.9393 56.7362 45.686C57.3616 46.386 57.6742 47.2447 57.6742 48.262C57.6742 48.4393 57.6649 48.6167 57.6462 48.794ZM52.3262 47.744H56.0502C56.0222 47.212 55.8402 46.7593 55.5042 46.386C55.1776 46.0127 54.7529 45.826 54.2302 45.826C53.6889 45.826 53.2409 46.008 52.8862 46.372C52.5316 46.736 52.3449 47.1933 52.3262 47.744Z" fill="#A0A3B1"/>
</svg>
